{"title":"Harley Quinn likes cum in her butt","uid":15757058,"size":568605956,"categoryP":"porn","categoryS":"hd___movies","magnet":"?xt=urn:btih:819989c7db0fe7d66fc74f8fb7c997a58928a51d&amp;dn=Harley+Quinn+likes+cum+in+her+butt&amp;tr=udp%3A%2F%2Ftracker.leechers-paradise.org%3A6969&amp;tr=udp%3A%2F%2Fzer0day.ch%3A1337&amp;tr=udp%3A%2F%2Fopen.demonii.com%3A1337&amp;tr=udp%3A%2F%2Ftracker.coppersurfer.tk%3A6969&amp;tr=udp%3A%2F%2Fexodus.desync.com%3A6969","seeders":1,"leechers":0,"uploader":null,"files":1,"time":1473069029,"description":"Video\r\nID                                       : 1\r\nFormat                                   : AVC\r\nFormat/Info                              : Advanced Video Codec\r\nFormat profile                           :   \r\nFormat settings, CABAC                   : Yes\r\nFormat settings, ReFrames                : 3 frames\r\nCodec ID                                 : avc1\r\nCodec ID/Info                            : Advanced Video Coding\r\nDuration                                 : 28 min 11 s\r\nSource duration                          : 28 min 11 s\r\nBit rate                                 : 2 495 kb/s\r\nWidth                                    : 1 280 pixels\r\nHeight                                   : 720 pixels\r\nDisplay aspect ratio                     : 16:9\r\nFrame rate mode                          : Variable\r\nFrame rate                               : 30.000 FPS\r\nMinimum frame rate                       : 30.000 FPS\r\nMaximum frame rate                       : 30.030 FPS\r\nStandard                                 : NTSC\r\nColor space                              : YUV\r\nChroma subsampling                       : 4:2:0\r\nBit depth                                : 8 bits\r\nScan type                                : Progressive\r\nBits/(Pixel*Frame)                       : 0.090\r\nStream size                              : 503 MiB (93%)\r\nSource stream size                       : 503 MiB (93%)\r\nLanguage                                 : English\r\nEncoded date                             : UTC 2016-06-07 21:13:20\r\nTagged date                              : UTC 2016-06-07 21:13:20\r\nColor range                              : Limited\r\nmdhd_Duration                            : 1691667\r\n\r\nAudio\r\nID                                       : 2\r\nFormat                                   : AAC\r\nFormat/Info                              : Advanced Audio Codec\r\nFormat profile                           : LC\r\nCodec ID                                 : 40\r\nDuration                                 : 28 min 11 s\r\nSource duration                          : 28 min 11 s\r\nBit rate mode                            : Variable\r\nBit rate                                 : 192 kb/s\r\nMaximum bit rate                         : 249 kb/s\r\nChannel(s)                               : 2 channels\r\nChannel positions                        : Front: L R\r\nSampling rate                            : 48.0 kHz\r\nFrame rate                               : 46.875 FPS (1024 spf)\r\nCompression mode                         : Lossy\r\nStream size                              : 38.2 MiB (7%)\r\nSource stream size                       : 38.2 MiB (7%)\r\nLanguage                                 : English\r\nEncoded date                             : UTC 2016-06-07 21:13:20\r\nTagged date                              : UTC 2016-06-07 21:13:20\r\nmdhd_Duration                            : 1691733","torrent":{"xt":"urn:btih:819989c7db0fe7d66fc74f8fb7c997a58928a51d","amp;dn":"Harley+Quinn+likes+cum+in+her+butt","amp;tr":["udp%3A%2F%2Ftracker.leechers-paradise.org%3A6969","udp%3A%2F%2Fzer0day.ch%3A1337","udp%3A%2F%2Fopen.demonii.com%3A1337","udp%3A%2F%2Ftracker.coppersurfer.tk%3A6969","udp%3A%2F%2Fexodus.desync.com%3A6969"],"infoHash":"819989c7db0fe7d66fc74f8fb7c997a58928a51d","infoHashBuffer":{"type":"Buffer","data":[129,153,137,199,219,15,231,214,111,199,79,143,183,201,151,165,137,40,165,29]},"announce":[],"urlList":[]}}